# xmcd
#
# Track frame offsets:
#	150
#	12705
#	23135
#	33270
#	43430
#	56695
#	66190
#	76370
#	88040
#	101307
#	112830
#	123410
#	135615
#	147880
#	158170
#	170212
#	180595
#	190745
#	203282
#	215182
#	227730
#	237775
#	249892
#	261790
#	274762
#	284625
#	296740
#	309897
#	323217
#	332382
#	345232
#
# Disc length: 4747
#
# Revision: 1
# Processed by: cddbd v1.5.1PL0 Copyright (c) Steve Scherf et al.
# Submitted via: CDex 1.51
# Normalized: r0:TRMNUM
#
DISCID=bd12891f
DTITLE=Junior Parker - I'm so satisfied
DYEAR=1998
DGENRE=Blues
TTITLE0=Country Girl 
TTITLE1=You Can Make It If You Try 
TTITLE2=Wish Me Well 
TTITLE3=Hey Lawdy Mama 
TTITLE4=Sometimes I Wonder 
TTITLE5=(Ooh Wee Baby) That's The Way You Make Me Feel 
TTITLE6=Come Back Baby 
TTITLE7=Just Like A Fish 
TTITLE8=Baby, Please 
TTITLE9=You Ain't Got No Heart 
TTITLE10=Cracked Up Over You 
TTITLE11=Easy Lovin' 
TTITLE12=I'm So Satisfied 
TTITLE13=You Can't Keep A Good Woman Down 
TTITLE14=You're The One 
TTITLE15=Reconsider Baby 
TTITLE16=Lover To Friend 
TTITLE17=Your Bag Is Bringing Me Down 
TTITLE18=Ain't Gon' Be No Cuttin' Loose 
TTITLE19=Lovin' Man On Your Hands 
TTITLE20=Your Love's All Over Me 
TTITLE21=What A Fool I Was 
TTITLE22=I Got Money 
TTITLE23=It Must Be Love 
TTITLE24=Just Can't Put My Fingers On It 
TTITLE25=If I Had Your Love 
TTITLE26=Hurtin' Inside 
TTITLE27=I'm In Love With Someone Else 
TTITLE28=Movin' Out 
TTITLE29=I Found Love 
TTITLE30=Don't Let It End This Way 
EXTD=YEAR: 1998
EXTT0=
EXTT1=
EXTT2=
EXTT3=
EXTT4=
EXTT5=
EXTT6=
EXTT7=
EXTT8=
EXTT9=
EXTT10=
EXTT11=
EXTT12=
EXTT13=
EXTT14=
EXTT15=
EXTT16=
EXTT17=
EXTT18=
EXTT19=
EXTT20=
EXTT21=
EXTT22=
EXTT23=
EXTT24=
EXTT25=
EXTT26=
EXTT27=
EXTT28=
EXTT29=
EXTT30=
PLAYORDER=
